<svg width="48" height="46" viewBox="0 0 48 46" fill="none" xmlns="http://www.w3.org/2000/svg">
<path d="M8.96603 23.2448L0.457031 20.1968L3.37803 12.4498L11.633 15.1168C13.8344 15.8788 15.6124 16.6408 16.967 17.4028C18.3217 18.0801 19.6764 18.8844 21.031 19.8158C20.6924 18.2918 20.396 16.7254 20.142 15.1168C19.9727 13.5081 19.888 11.6031 19.888 9.40177V0.384766H28.143V9.40177C28.143 11.6031 28.016 13.5504 27.762 15.2438C27.5927 16.8524 27.3387 18.3764 27 19.8158C28.27 18.9691 29.6247 18.1648 31.064 17.4028C32.5034 16.6408 34.2814 15.8788 36.398 15.1168L44.653 12.3228L47.701 20.1968L39.065 23.2448C37.1177 23.9221 35.2974 24.4301 33.604 24.7688C31.9107 25.0228 30.3444 25.2768 28.905 25.5308C30.2597 26.6314 31.445 27.7321 32.461 28.8328C33.5617 29.9334 34.6624 31.3728 35.763 33.1508L40.843 40.7708L33.985 45.4698L28.905 38.2308C27.5504 36.3681 26.492 34.7171 25.73 33.2778C24.968 31.7538 24.333 30.3144 23.825 28.9598C23.4017 30.5684 22.7667 32.1348 21.92 33.6588C21.158 35.1828 20.2267 36.7068 19.126 38.2308L13.665 45.4698L6.93403 40.7708L12.014 33.1508C13.284 31.3728 14.4694 29.9334 15.57 28.8328C16.6707 27.7321 17.856 26.6314 19.126 25.5308C17.348 25.2768 15.6547 25.0228 14.046 24.7688C12.522 24.4301 10.8287 23.9221 8.96603 23.2448Z" fill="#455CE9"/>
</svg>
