<svg width="202" height="24" viewBox="0 0 202 24" fill="none" xmlns="http://www.w3.org/2000/svg">
<path d="M64.4475 5.87179V0.449219H40.1172V23.5272H64.4475V18.1047H47.4004V14.6995H64.4475V9.27694H47.4004V5.87179H64.4475Z" fill="#EDEDED"/>
<path d="M95.4743 0.449219H68.3281V5.87179H78.2608V23.5272H85.5416V5.87179H95.4743V0.449219Z" fill="#EDEDED"/>
<path d="M25.9873 0.449219L18.1861 14.5047L10.3849 0.449219H0.117188V23.5272H7.06531V7.55179L16.1544 23.5272H20.2178L29.3069 7.55179V23.5272H36.255V0.449219H25.9873Z" fill="#EDEDED"/>
<path d="M150.283 0.0693359H148.95C134.355 0.0693359 132.711 7.3525 132.711 11.4753V12.4044C132.711 16.463 134.355 23.9315 148.95 23.9315H150.283C164.816 23.9315 166.489 16.463 166.489 12.4044V11.4729C166.489 7.3525 164.785 0.0693359 150.283 0.0693359ZM158.928 12.1192C158.928 14.7854 157.348 18.3165 149.601 18.3165C141.793 18.3165 140.272 14.6927 140.272 12.0575V11.6915C140.272 9.05627 141.667 5.64874 149.601 5.64874C157.41 5.64874 158.928 9.05627 158.928 11.6915V12.1192Z" fill="#EDEDED"/>
<path d="M185.11 0.475586H169.84V23.5251H185.148C198.628 23.5251 201.387 17.2661 201.387 12.3069V11.3801C201.387 6.20469 198.474 0.475586 185.11 0.475586ZM193.818 12.0336C193.818 14.3885 192.733 17.9742 184.551 17.9742H177.061V5.92667H184.561C192.866 5.92667 193.828 9.49103 193.828 11.8459L193.818 12.0336Z" fill="#EDEDED"/>
<path d="M122.109 0.472656V9.27662H106.614V0.472656H99.3945V23.5269H106.614V14.6992H122.109V23.5269H129.328V0.472656H122.109Z" fill="#EDEDED"/>
</svg>
