<svg width="64" height="64" viewBox="0 0 64 64" fill="none" xmlns="http://www.w3.org/2000/svg">
    <path fill-rule="evenodd" clip-rule="evenodd" d="M0 5L32 15.9276L64 5V40.5774L54.1538 43.94V53.7989L39.3846 59V48.9844L31.9515 51.5215L9.84615 43.0292L9.84615 18.5717L32 26.0188L54.1538 18.5717V33.9669L32 41.4139L19.6923 36.8686V32.1403L32 36.1058L49.2308 30.3137V25.5347L32 31.3269L14.7692 25.5347L14.7692 39.5341L32.0485 46.1723L44.3077 41.988V51.9331L49.2308 50.1994V40.305L59.0769 36.9424V11.9975L32 21.244L4.92308 11.9975L4.92308 41.1511L0 39.2573L0 5Z" fill="white"/>
</svg>
